<!-- <svg width="515" height="369" viewBox="0 0 515 369" fill="none" xmlns="http://www.w3.org/2000/svg">
<g clip-path="url(#clip0_2163_31226)">
<path d="M288.403 63.9148H204.979C202.192 63.9148 199.958 66.2959 199.898 69.2556C198.212 152.45 157.224 231.411 86.6745 287.34C84.4347 289.115 83.9244 292.451 85.5619 294.853L134.372 366.521C136.032 368.96 139.267 369.511 141.545 367.719C185.658 332.977 221.139 291.066 246.691 244.612C272.243 291.066 307.727 332.977 351.84 367.719C354.115 369.511 357.35 368.96 359.013 366.521L407.823 294.853C409.458 292.451 408.948 289.115 406.71 287.34C336.159 231.411 295.171 152.45 293.487 69.2556C293.426 66.2959 291.191 63.9148 288.403 63.9148Z" fill="#FF875B"/>
<path d="M405.204 116.85L396.131 88.8182C394.285 83.1271 389.79 78.6942 384.068 76.9415L355.9 68.2814C352.013 67.0854 351.972 61.5904 355.848 60.343L383.872 51.2704C389.563 49.4251 394.007 44.9198 395.76 39.2081L404.41 11.0421C405.606 7.14502 411.102 7.1037 412.36 10.9803L421.433 39.0121C423.278 44.7031 427.774 49.1363 433.496 50.8993L461.664 59.549C465.551 60.7451 465.592 66.2401 461.716 67.4979L433.692 76.5704C428 78.4054 423.557 82.9107 421.804 88.6327L413.153 116.788C411.957 120.685 406.462 120.727 405.204 116.85Z" fill="#FF875B"/>
<path fill-rule="evenodd" clip-rule="evenodd" d="M79.8828 152.628L59.2897 159.292C55.1114 160.649 51.8538 163.951 50.5679 168.152L44.2054 188.843C43.3295 191.698 39.2929 191.728 38.376 188.88L31.7117 168.298C30.3549 164.115 27.0489 160.854 22.852 159.564L2.16565 153.213C-0.696884 152.333 -0.730432 148.297 2.1172 147.372L22.7066 140.708C26.8886 139.351 30.1462 136.049 31.4396 131.848L37.7946 111.157C38.6705 108.302 42.7071 108.272 43.6314 111.12L50.2958 131.702C51.6451 135.885 54.9511 139.146 59.1555 140.436L79.8344 146.791C82.6969 147.667 82.7304 151.703 79.8828 152.628Z" fill="#28286E"/>
<path fill-rule="evenodd" clip-rule="evenodd" d="M514.432 257.705L508.907 259.493C507.786 259.857 506.912 260.743 506.567 261.87L504.86 267.421C504.625 268.187 503.542 268.195 503.296 267.431L501.508 261.909C501.144 260.787 500.257 259.912 499.131 259.566L493.581 257.861C492.813 257.626 492.804 256.543 493.568 256.295L499.092 254.507C500.214 254.143 501.088 253.257 501.435 252.13L503.14 246.579C503.375 245.813 504.458 245.805 504.706 246.569L506.494 252.091C506.855 253.213 507.743 254.088 508.871 254.434L514.419 256.139C515.187 256.374 515.195 257.457 514.432 257.705Z" fill="#28286E"/>
<path fill-rule="evenodd" clip-rule="evenodd" d="M157.69 5.85234L154.677 6.74736C154.065 6.92836 153.588 7.37134 153.4 7.93534L152.469 10.7113C152.341 11.0943 151.75 11.0983 151.616 10.7163L150.641 7.95436C150.442 7.39436 149.958 6.95634 149.344 6.78334L146.317 5.93135C145.898 5.81335 145.893 5.27135 146.31 5.14735L149.323 4.25334C149.935 4.07234 150.411 3.62935 150.601 3.06535L151.531 0.289347C151.659 -0.093653 152.25 -0.0976575 152.385 0.284342L153.36 3.04634C153.557 3.60634 154.042 4.04436 154.657 4.21736L157.683 5.06935C158.102 5.18735 158.107 5.72934 157.69 5.85234Z" fill="#9FC4F0"/>
<path fill-rule="evenodd" clip-rule="evenodd" d="M16.69 237.852L13.6768 238.747C13.0651 238.928 12.5885 239.371 12.4002 239.935L11.4693 242.711C11.3408 243.094 10.7501 243.098 10.616 242.716L9.64078 239.954C9.44248 239.394 8.95808 238.956 8.34418 238.783L5.31668 237.931C4.89778 237.813 4.89338 237.271 5.30998 237.147L8.32318 236.253C8.93488 236.072 9.41148 235.629 9.60088 235.065L10.5307 232.289C10.6592 231.906 11.2499 231.902 11.3851 232.284L12.3603 235.046C12.5575 235.606 13.0419 236.044 13.6568 236.217L16.6833 237.069C17.1022 237.187 17.1066 237.729 16.69 237.852Z" fill="#9FC4F0"/>
</g>
<defs>
<clipPath id="clip0_2163_31226">
<rect width="515" height="368.774" fill="white"/>
</clipPath>
</defs>
</svg> -->
<svg
  width="515"
  height="369"
  viewBox="0 0 515 369"
  fill="none"
  xmlns="http://www.w3.org/2000/svg"
>
<g clip-path="url(#clip0_2163_31226)">
<path
      d="M288.403 63.9148H204.979C202.192 63.9148 199.958 66.2959 199.898 69.2556C198.212 152.45 157.224 231.411 86.6745 287.34C84.4347 289.115 83.9244 292.451 85.5619 294.853L134.372 366.521C136.032 368.96 139.267 369.511 141.545 367.719C185.658 332.977 221.139 291.066 246.691 244.612C272.243 291.066 307.727 332.977 351.84 367.719C354.115 369.511 357.35 368.96 359.013 366.521L407.823 294.853C409.458 292.451 408.948 289.115 406.71 287.34C336.159 231.411 295.171 152.45 293.487 69.2556C293.426 66.2959 291.191 63.9148 288.403 63.9148Z"
      fill="#ddd"
    />
<path
      d="M405.204 116.85L396.131 88.8182C394.285 83.1271 389.79 78.6942 384.068 76.9415L355.9 68.2814C352.013 67.0854 351.972 61.5904 355.848 60.343L383.872 51.2704C389.563 49.4251 394.007 44.9198 395.76 39.2081L404.41 11.0421C405.606 7.14502 411.102 7.1037 412.36 10.9803L421.433 39.0121C423.278 44.7031 427.774 49.1363 433.496 50.8993L461.664 59.549C465.551 60.7451 465.592 66.2401 461.716 67.4979L433.692 76.5704C428 78.4054 423.557 82.9107 421.804 88.6327L413.153 116.788C411.957 120.685 406.462 120.727 405.204 116.85Z"
      fill="#ddd"
    />
<path
      fill-rule="evenodd"
      clip-rule="evenodd"
      d="M79.8828 152.628L59.2897 159.292C55.1114 160.649 51.8538 163.951 50.5679 168.152L44.2054 188.843C43.3295 191.698 39.2929 191.728 38.376 188.88L31.7117 168.298C30.3549 164.115 27.0489 160.854 22.852 159.564L2.16565 153.213C-0.696884 152.333 -0.730432 148.297 2.1172 147.372L22.7066 140.708C26.8886 139.351 30.1462 136.049 31.4396 131.848L37.7946 111.157C38.6705 108.302 42.7071 108.272 43.6314 111.12L50.2958 131.702C51.6451 135.885 54.9511 139.146 59.1555 140.436L79.8344 146.791C82.6969 147.667 82.7304 151.703 79.8828 152.628Z"
      fill="#ddd"
    />
<path
      fill-rule="evenodd"
      clip-rule="evenodd"
      d="M514.432 257.705L508.907 259.493C507.786 259.857 506.912 260.743 506.567 261.87L504.86 267.421C504.625 268.187 503.542 268.195 503.296 267.431L501.508 261.909C501.144 260.787 500.257 259.912 499.131 259.566L493.581 257.861C492.813 257.626 492.804 256.543 493.568 256.295L499.092 254.507C500.214 254.143 501.088 253.257 501.435 252.13L503.14 246.579C503.375 245.813 504.458 245.805 504.706 246.569L506.494 252.091C506.855 253.213 507.743 254.088 508.871 254.434L514.419 256.139C515.187 256.374 515.195 257.457 514.432 257.705Z"
      fill="#ddd"
    />
<path
      fill-rule="evenodd"
      clip-rule="evenodd"
      d="M157.69 5.85234L154.677 6.74736C154.065 6.92836 153.588 7.37134 153.4 7.93534L152.469 10.7113C152.341 11.0943 151.75 11.0983 151.616 10.7163L150.641 7.95436C150.442 7.39436 149.958 6.95634 149.344 6.78334L146.317 5.93135C145.898 5.81335 145.893 5.27135 146.31 5.14735L149.323 4.25334C149.935 4.07234 150.411 3.62935 150.601 3.06535L151.531 0.289347C151.659 -0.093653 152.25 -0.0976575 152.385 0.284342L153.36 3.04634C153.557 3.60634 154.042 4.04436 154.657 4.21736L157.683 5.06935C158.102 5.18735 158.107 5.72934 157.69 5.85234Z"
      fill="#ddd"
    />
<path
      fill-rule="evenodd"
      clip-rule="evenodd"
      d="M16.69 237.852L13.6768 238.747C13.0651 238.928 12.5885 239.371 12.4002 239.935L11.4693 242.711C11.3408 243.094 10.7501 243.098 10.616 242.716L9.64078 239.954C9.44248 239.394 8.95808 238.956 8.34418 238.783L5.31668 237.931C4.89778 237.813 4.89338 237.271 5.30998 237.147L8.32318 236.253C8.93488 236.072 9.41148 235.629 9.60088 235.065L10.5307 232.289C10.6592 231.906 11.2499 231.902 11.3851 232.284L12.3603 235.046C12.5575 235.606 13.0419 236.044 13.6568 236.217L16.6833 237.069C17.1022 237.187 17.1066 237.729 16.69 237.852Z"
      fill="#ddd"
    />
</g>
<defs>
<clipPath id="clip0_2163_31226">
<rect width="515" height="368.774" fill="#ddd" />
</clipPath>
</defs>
</svg>
