<svg
  xmlns="http://www.w3.org/2000/svg"
  width="50"
  height="16"
  viewBox="0, 0, 400, 140"
>
      <path
    fill="#12bc45"
    transform="scale(1.5) translate(-110, -55)"
    d="m198.5 58.9-5.2 3a1681 1681 0 0 1-9 5c-4.7 2.8-5.3 3.2-5.8 4-1.2 2-.1 4.9 2.2 5.5 1.6.4 1 .6 14.9-7.4 3.7-2.1 4.3-2.4 4.7-2.2.3 0 1.6.8 3 1.6 12.8 7.5 13.7 8 14.4 8 2.9.6 5.1-2.7 3.8-5.3-.5-1-.8-1.1-4.5-3.3l-9.4-5.4c-6.9-4-7.5-4.3-9-3.5m-37 21.3c-.8.3-1.8 1.5-2 2.4-.3 1-.3 43.4 0 44.4.9 3.3 5.6 3.6 6.9.5.3-.6.3-3 .3-19.1l.1-18.4 5.3 3 23.6 13.6.5.3v41.2l.4.9c1.3 2.6 5 2.6 6.5 0 .4-.6.4-1 .5-21.4V107l2.4-1.4a2422.5 2422.5 0 0 0 22.7-13 36 36 0 0 1 4.2-2.3c.1 0 .2 8.3.2 18.5 0 17 0 18.4.3 19 1.4 2.6 5.3 2.6 6.6 0 .5-1 .5-44.7 0-45.7-1-2.1-3.2-2.7-5.4-1.5a2271.2 2271.2 0 0 0-34.7 19.9 2299.2 2299.2 0 0 0-12.7-7.2 5636 5636 0 0 1-7.7-4.4c-16.4-9.5-15.3-9-16.4-9-.6.1-1.3.2-1.6.4"
  />
</svg>
